<svg xmlns="http://www.w3.org/2000/svg" xmlns:xlink="http://www.w3.org/1999/xlink" width="500" zoomAndPan="magnify" viewBox="0 0 375 374.999991" height="500" preserveAspectRatio="xMidYMid meet" version="1.0"><defs><g/><clipPath id="adbdb5d3c6"><path d="M 0 127.695312 L 56 127.695312 L 56 247.835938 L 0 247.835938 Z M 0 127.695312 " clip-rule="nonzero"/></clipPath><clipPath id="6f5f988ba4"><path d="M 64 127.695312 L 117.785156 127.695312 L 117.785156 247.835938 L 64 247.835938 Z M 64 127.695312 " clip-rule="nonzero"/></clipPath></defs><g clip-path="url(#adbdb5d3c6)"><path fill="#56ffa6" d="M -0.00390625 187.484375 C -0.00390625 214.144531 17.417969 236.738281 41.496094 244.5 C 46.03125 245.960938 50.800781 246.898438 55.738281 247.234375 L 55.738281 206.660156 L 41.496094 206.660156 L 41.496094 228.511719 C 25.839844 221.484375 14.9375 205.757812 14.9375 187.484375 C 14.9375 169.210938 25.839844 153.480469 41.496094 146.453125 L 41.496094 168.417969 L 55.738281 168.417969 L 55.738281 127.730469 C 50.800781 128.070312 46.03125 129.003906 41.496094 130.46875 C 17.417969 138.230469 -0.00390625 160.820312 -0.00390625 187.484375 Z M -0.00390625 187.484375 " fill-opacity="1" fill-rule="nonzero"/></g><g clip-path="url(#6f5f988ba4)"><path fill="#56ffa6" d="M 104.777344 189.902344 L 101.628906 186.753906 L 117.460938 170.917969 C 116.03125 165.9375 113.972656 161.222656 111.375 156.867188 C 108.652344 152.296875 105.339844 148.121094 101.539062 144.445312 L 91.382812 155.40625 C 95.042969 159 98.089844 163.21875 100.355469 167.886719 L 91.558594 176.683594 L 79.066406 164.1875 L 79.066406 130.726562 C 74.535156 129.199219 69.765625 128.195312 64.824219 127.792969 L 64.824219 170.089844 L 81.488281 186.753906 L 64.824219 203.417969 L 64.824219 247.175781 C 69.765625 246.773438 74.535156 245.773438 79.066406 244.242188 L 79.066406 209.316406 L 91.558594 196.824219 L 100.824219 206.089844 C 98.527344 211.128906 95.332031 215.671875 91.4375 219.503906 L 101.597656 230.46875 C 105.628906 226.558594 109.109375 222.085938 111.914062 217.179688 C 114.453125 212.746094 116.4375 207.957031 117.777344 202.902344 Z M 104.777344 189.902344 " fill-opacity="1" fill-rule="nonzero"/></g><g fill="#56ffa6" fill-opacity="1"><g transform="translate(144.039774, 205.167687)"><g><path d="M 3.765625 -17.078125 C 3.765625 -20.265625 4.25 -22.976562 5.21875 -25.21875 C 6.195312 -27.457031 7.644531 -29.285156 9.5625 -30.703125 C 11.488281 -32.128906 13.882812 -33.164062 16.75 -33.8125 C 19.625 -34.46875 22.960938 -34.796875 26.765625 -34.796875 C 29.421875 -34.796875 31.992188 -34.554688 34.484375 -34.078125 C 36.984375 -33.597656 39.519531 -32.828125 42.09375 -31.765625 C 42.425781 -31.617188 42.660156 -31.4375 42.796875 -31.21875 C 42.941406 -31.007812 43.015625 -30.800781 43.015625 -30.59375 C 43.015625 -30.351562 42.921875 -30.140625 42.734375 -29.953125 C 42.554688 -29.773438 42.320312 -29.6875 42.03125 -29.6875 C 41.957031 -29.6875 41.765625 -29.734375 41.453125 -29.828125 C 39.097656 -30.816406 36.664062 -31.554688 34.15625 -32.046875 C 31.644531 -32.535156 29.179688 -32.78125 26.765625 -32.78125 C 23.128906 -32.78125 20.019531 -32.476562 17.4375 -31.875 C 14.863281 -31.269531 12.753906 -30.328125 11.109375 -29.046875 C 9.460938 -27.773438 8.257812 -26.148438 7.5 -24.171875 C 6.75 -22.203125 6.375 -19.835938 6.375 -17.078125 C 6.375 -14.316406 6.75 -11.945312 7.5 -9.96875 C 8.257812 -8 9.460938 -6.375 11.109375 -5.09375 C 12.753906 -3.820312 14.863281 -2.882812 17.4375 -2.28125 C 20.019531 -1.675781 23.128906 -1.375 26.765625 -1.375 C 29.179688 -1.375 31.644531 -1.617188 34.15625 -2.109375 C 36.664062 -2.609375 39.097656 -3.347656 41.453125 -4.328125 C 41.617188 -4.410156 41.800781 -4.453125 42 -4.453125 C 42.3125 -4.453125 42.5625 -4.359375 42.75 -4.171875 C 42.945312 -3.984375 43.046875 -3.769531 43.046875 -3.53125 C 43.046875 -3.320312 42.972656 -3.113281 42.828125 -2.90625 C 42.691406 -2.707031 42.445312 -2.535156 42.09375 -2.390625 C 39.5 -1.328125 36.957031 -0.554688 34.46875 -0.078125 C 31.988281 0.398438 29.421875 0.640625 26.765625 0.640625 C 22.960938 0.640625 19.625 0.316406 16.75 -0.328125 C 13.882812 -0.984375 11.488281 -2.019531 9.5625 -3.4375 C 7.644531 -4.863281 6.195312 -6.695312 5.21875 -8.9375 C 4.25 -11.175781 3.765625 -13.890625 3.765625 -17.078125 Z M 3.765625 -17.078125 "/></g></g></g><g fill="#56ffa6" fill-opacity="1"><g transform="translate(189.694209, 205.167687)"><g><path d="M 6.5625 -6.875 C 6.5625 -5.882812 6.8125 -5.050781 7.3125 -4.375 C 7.8125 -3.707031 8.507812 -3.15625 9.40625 -2.71875 C 10.3125 -2.289062 11.378906 -1.976562 12.609375 -1.78125 C 13.847656 -1.59375 15.207031 -1.5 16.6875 -1.5 C 18.476562 -1.5 20.066406 -1.625 21.453125 -1.875 C 22.847656 -2.132812 24.066406 -2.457031 25.109375 -2.84375 C 26.148438 -3.238281 27.03125 -3.664062 27.75 -4.125 C 28.46875 -4.582031 29.0625 -5.023438 29.53125 -5.453125 L 29.53125 -11.625 C 27.488281 -11.90625 25.375 -12.171875 23.1875 -12.421875 C 21 -12.679688 18.789062 -12.8125 16.5625 -12.8125 C 14.988281 -12.8125 13.582031 -12.71875 12.34375 -12.53125 C 11.101562 -12.351562 10.050781 -12.039062 9.1875 -11.59375 C 8.332031 -11.144531 7.679688 -10.535156 7.234375 -9.765625 C 6.785156 -8.992188 6.5625 -8.03125 6.5625 -6.875 Z M 19.59375 -22.296875 C 17.632812 -22.296875 15.957031 -22.242188 14.5625 -22.140625 C 13.175781 -22.035156 11.984375 -21.898438 10.984375 -21.734375 C 9.992188 -21.578125 9.160156 -21.40625 8.484375 -21.21875 C 7.816406 -21.03125 7.226562 -20.847656 6.71875 -20.671875 C 6.46875 -20.671875 6.238281 -20.789062 6.03125 -21.03125 C 5.832031 -21.28125 5.734375 -21.546875 5.734375 -21.828125 C 5.734375 -22.097656 5.859375 -22.296875 6.109375 -22.421875 C 6.265625 -22.492188 6.644531 -22.625 7.25 -22.8125 C 7.851562 -23 8.703125 -23.1875 9.796875 -23.375 C 10.890625 -23.570312 12.25 -23.738281 13.875 -23.875 C 15.5 -24.019531 17.414062 -24.09375 19.625 -24.09375 C 20.664062 -24.09375 21.695312 -24.023438 22.71875 -23.890625 C 23.738281 -23.765625 24.703125 -23.523438 25.609375 -23.171875 C 26.523438 -22.828125 27.375 -22.347656 28.15625 -21.734375 C 28.945312 -21.117188 29.625 -20.328125 30.1875 -19.359375 C 30.75 -18.390625 31.191406 -17.210938 31.515625 -15.828125 C 31.847656 -14.453125 32.015625 -12.835938 32.015625 -10.984375 L 32.015625 -2.140625 C 32.015625 -1.898438 32.003906 -1.65625 31.984375 -1.40625 C 31.960938 -1.164062 31.90625 -0.9375 31.8125 -0.71875 C 31.71875 -0.507812 31.585938 -0.335938 31.421875 -0.203125 C 31.265625 -0.0664062 31.039062 0 30.75 0 C 30.28125 0 29.957031 -0.210938 29.78125 -0.640625 C 29.613281 -1.066406 29.53125 -1.609375 29.53125 -2.265625 L 29.53125 -4.390625 C 29.125 -3.878906 28.59375 -3.347656 27.9375 -2.796875 C 27.28125 -2.242188 26.453125 -1.734375 25.453125 -1.265625 C 24.453125 -0.804688 23.253906 -0.425781 21.859375 -0.125 C 20.472656 0.164062 18.828125 0.3125 16.921875 0.3125 C 15.148438 0.3125 13.476562 0.179688 11.90625 -0.078125 C 10.34375 -0.347656 8.984375 -0.769531 7.828125 -1.34375 C 6.679688 -1.914062 5.773438 -2.65625 5.109375 -3.5625 C 4.441406 -4.476562 4.109375 -5.582031 4.109375 -6.875 C 4.109375 -8.363281 4.421875 -9.601562 5.046875 -10.59375 C 5.671875 -11.582031 6.535156 -12.378906 7.640625 -12.984375 C 8.742188 -13.585938 10.035156 -14.007812 11.515625 -14.25 C 12.992188 -14.5 14.59375 -14.625 16.3125 -14.625 C 17.601562 -14.625 18.894531 -14.578125 20.1875 -14.484375 C 21.488281 -14.390625 22.722656 -14.253906 23.890625 -14.078125 C 25.054688 -13.910156 26.125 -13.695312 27.09375 -13.4375 C 28.0625 -13.1875 28.875 -12.890625 29.53125 -12.546875 C 29.53125 -14.628906 29.253906 -16.300781 28.703125 -17.5625 C 28.148438 -18.832031 27.410156 -19.820312 26.484375 -20.53125 C 25.566406 -21.238281 24.507812 -21.707031 23.3125 -21.9375 C 22.125 -22.175781 20.882812 -22.296875 19.59375 -22.296875 Z M 19.59375 -22.296875 "/></g></g></g><g fill="#56ffa6" fill-opacity="1"><g transform="translate(226.211625, 205.167687)"><g><path d="M 32.046875 -2.203125 C 32.046875 -1.941406 32.023438 -1.675781 31.984375 -1.40625 C 31.941406 -1.144531 31.875 -0.910156 31.78125 -0.703125 C 31.6875 -0.503906 31.554688 -0.335938 31.390625 -0.203125 C 31.234375 -0.0664062 31.03125 0 30.78125 0 C 30.476562 0 30.25 -0.0664062 30.09375 -0.203125 C 29.9375 -0.335938 29.816406 -0.503906 29.734375 -0.703125 C 29.660156 -0.910156 29.617188 -1.144531 29.609375 -1.40625 C 29.597656 -1.675781 29.59375 -1.941406 29.59375 -2.203125 L 29.59375 -12.8125 C 29.59375 -14.40625 29.472656 -15.796875 29.234375 -16.984375 C 29.003906 -18.171875 28.546875 -19.15625 27.859375 -19.9375 C 27.171875 -20.726562 26.21875 -21.316406 25 -21.703125 C 23.789062 -22.097656 22.203125 -22.296875 20.234375 -22.296875 C 19.023438 -22.296875 17.742188 -22.195312 16.390625 -22 C 15.046875 -21.800781 13.757812 -21.460938 12.53125 -20.984375 C 11.3125 -20.503906 10.226562 -19.863281 9.28125 -19.0625 C 8.34375 -18.269531 7.691406 -17.269531 7.328125 -16.0625 L 7.328125 -2.203125 C 7.328125 -1.941406 7.316406 -1.675781 7.296875 -1.40625 C 7.273438 -1.144531 7.222656 -0.910156 7.140625 -0.703125 C 7.054688 -0.503906 6.9375 -0.335938 6.78125 -0.203125 C 6.632812 -0.0664062 6.4375 0 6.1875 0 C 5.90625 0 5.675781 -0.0664062 5.5 -0.203125 C 5.332031 -0.335938 5.203125 -0.503906 5.109375 -0.703125 C 5.015625 -0.910156 4.953125 -1.144531 4.921875 -1.40625 C 4.890625 -1.675781 4.875 -1.941406 4.875 -2.203125 L 4.875 -22.078125 C 4.875 -22.421875 4.941406 -22.738281 5.078125 -23.03125 C 5.222656 -23.332031 5.582031 -23.484375 6.15625 -23.484375 C 6.675781 -23.484375 7 -23.34375 7.125 -23.0625 C 7.257812 -22.789062 7.328125 -22.460938 7.328125 -22.078125 L 7.328125 -18.21875 C 7.898438 -19.519531 8.695312 -20.5625 9.71875 -21.34375 C 10.738281 -22.132812 11.859375 -22.726562 13.078125 -23.125 C 14.296875 -23.53125 15.53125 -23.789062 16.78125 -23.90625 C 18.039062 -24.03125 19.191406 -24.09375 20.234375 -24.09375 C 22.441406 -24.09375 24.296875 -23.90625 25.796875 -23.53125 C 27.304688 -23.15625 28.523438 -22.523438 29.453125 -21.640625 C 30.378906 -20.765625 31.039062 -19.601562 31.4375 -18.15625 C 31.84375 -16.71875 32.046875 -14.9375 32.046875 -12.8125 Z M 32.046875 -2.203125 "/></g></g></g><g fill="#56ffa6" fill-opacity="1"><g transform="translate(262.759703, 205.167687)"><g><path d="M 15.703125 0.3125 C 15.234375 0.3125 14.882812 0.171875 14.65625 -0.109375 C 14.425781 -0.398438 14.253906 -0.660156 14.140625 -0.890625 L 2.171875 -21.3125 C 2.054688 -21.507812 1.976562 -21.695312 1.9375 -21.875 C 1.894531 -22.050781 1.875 -22.222656 1.875 -22.390625 C 1.875 -22.734375 1.972656 -23 2.171875 -23.1875 C 2.378906 -23.382812 2.625 -23.484375 2.90625 -23.484375 C 3.132812 -23.484375 3.367188 -23.40625 3.609375 -23.25 C 3.859375 -23.101562 4.078125 -22.863281 4.265625 -22.53125 L 15.703125 -2.234375 L 27.140625 -22.53125 C 27.316406 -22.863281 27.523438 -23.101562 27.765625 -23.25 C 28.015625 -23.40625 28.253906 -23.484375 28.484375 -23.484375 C 28.773438 -23.484375 29.019531 -23.382812 29.21875 -23.1875 C 29.425781 -23 29.53125 -22.734375 29.53125 -22.390625 C 29.53125 -22.054688 29.425781 -21.695312 29.21875 -21.3125 L 17.265625 -0.890625 C 17.117188 -0.660156 16.921875 -0.398438 16.671875 -0.109375 C 16.429688 0.171875 16.109375 0.3125 15.703125 0.3125 Z M 15.703125 0.3125 "/></g></g></g><g fill="#56ffa6" fill-opacity="1"><g transform="translate(294.156709, 205.167687)"><g><path d="M 18.390625 -22.296875 C 16.492188 -22.296875 14.804688 -22.128906 13.328125 -21.796875 C 11.859375 -21.472656 10.609375 -20.945312 9.578125 -20.21875 C 8.546875 -19.5 7.742188 -18.566406 7.171875 -17.421875 C 6.597656 -16.273438 6.269531 -14.875 6.1875 -13.21875 L 29.3125 -13.21875 L 29.3125 -14.875 C 29.3125 -15.894531 29.117188 -16.851562 28.734375 -17.75 C 28.359375 -18.65625 27.742188 -19.441406 26.890625 -20.109375 C 26.035156 -20.785156 24.910156 -21.316406 23.515625 -21.703125 C 22.128906 -22.097656 20.421875 -22.296875 18.390625 -22.296875 Z M 16.796875 -1.5 C 18.742188 -1.5 20.441406 -1.617188 21.890625 -1.859375 C 23.335938 -2.109375 24.582031 -2.40625 25.625 -2.75 C 26.675781 -3.101562 27.53125 -3.460938 28.1875 -3.828125 C 28.851562 -4.203125 29.375 -4.507812 29.75 -4.75 C 29.863281 -4.789062 29.941406 -4.8125 29.984375 -4.8125 C 30.210938 -4.8125 30.421875 -4.703125 30.609375 -4.484375 C 30.804688 -4.273438 30.90625 -4.046875 30.90625 -3.796875 C 30.90625 -3.578125 30.800781 -3.394531 30.59375 -3.25 C 30.414062 -3.0625 30.023438 -2.773438 29.421875 -2.390625 C 28.816406 -2.003906 27.953125 -1.609375 26.828125 -1.203125 C 25.703125 -0.804688 24.3125 -0.453125 22.65625 -0.140625 C 21 0.160156 19.035156 0.3125 16.765625 0.3125 C 14.398438 0.3125 12.390625 0.015625 10.734375 -0.578125 C 9.078125 -1.171875 7.726562 -2 6.6875 -3.0625 C 5.644531 -4.125 4.882812 -5.398438 4.40625 -6.890625 C 3.9375 -8.390625 3.703125 -10.03125 3.703125 -11.8125 C 3.703125 -14.175781 4.082031 -16.144531 4.84375 -17.71875 C 5.601562 -19.289062 6.640625 -20.550781 7.953125 -21.5 C 9.273438 -22.457031 10.828125 -23.128906 12.609375 -23.515625 C 14.398438 -23.898438 16.328125 -24.09375 18.390625 -24.09375 C 22.648438 -24.09375 25.835938 -23.28125 27.953125 -21.65625 C 30.066406 -20.03125 31.125 -17.707031 31.125 -14.6875 C 31.125 -14.40625 31.101562 -14.085938 31.0625 -13.734375 C 31.019531 -13.390625 30.960938 -13.054688 30.890625 -12.734375 C 30.816406 -12.421875 30.734375 -12.15625 30.640625 -11.9375 C 30.554688 -11.726562 30.472656 -11.625 30.390625 -11.625 L 21.375 -11.625 L 6.15625 -11.921875 C 6.195312 -10.023438 6.445312 -8.414062 6.90625 -7.09375 C 7.375 -5.78125 8.050781 -4.707031 8.9375 -3.875 C 9.820312 -3.050781 10.921875 -2.445312 12.234375 -2.0625 C 13.546875 -1.6875 15.066406 -1.5 16.796875 -1.5 Z M 16.796875 -1.5 "/></g></g></g><g fill="#56ffa6" fill-opacity="1"><g transform="translate(328.803796, 205.167687)"><g><path d="M 29.765625 -2.140625 C 30.222656 -1.710938 30.453125 -1.273438 30.453125 -0.828125 C 30.453125 -0.210938 30.125 0.09375 29.46875 0.09375 C 29.125 0.09375 28.710938 -0.109375 28.234375 -0.515625 L 17.484375 -10.328125 L 6.71875 -0.515625 C 6.445312 -0.296875 6.210938 -0.140625 6.015625 -0.046875 C 5.828125 0.046875 5.628906 0.09375 5.421875 0.09375 C 4.796875 0.09375 4.484375 -0.222656 4.484375 -0.859375 C 4.484375 -1.265625 4.71875 -1.691406 5.1875 -2.140625 L 15.828125 -11.859375 L 5.0625 -21.40625 C 4.65625 -21.75 4.453125 -22.125 4.453125 -22.53125 C 4.453125 -22.800781 4.546875 -23.023438 4.734375 -23.203125 C 4.929688 -23.390625 5.171875 -23.484375 5.453125 -23.484375 C 5.867188 -23.484375 6.289062 -23.300781 6.71875 -22.9375 L 17.484375 -13.375 L 28.234375 -22.9375 C 28.628906 -23.300781 29.039062 -23.484375 29.46875 -23.484375 C 29.75 -23.484375 29.988281 -23.394531 30.1875 -23.21875 C 30.382812 -23.050781 30.484375 -22.820312 30.484375 -22.53125 C 30.484375 -22.144531 30.285156 -21.769531 29.890625 -21.40625 L 19.140625 -11.859375 Z M 29.765625 -2.140625 "/></g></g></g></svg>