<svg xmlns="http://www.w3.org/2000/svg" xmlns:xlink="http://www.w3.org/1999/xlink" width="500" zoomAndPan="magnify" viewBox="0 0 375 374.999991" height="500" preserveAspectRatio="xMidYMid meet" version="1.0"><defs><clipPath id="81292360ad"><path d="M 2.8125 0 L 178 0 L 178 375 L 2.8125 375 Z M 2.8125 0 " clip-rule="nonzero"/></clipPath><clipPath id="3a6865fdd6"><path d="M 206 0 L 372.5625 0 L 372.5625 375 L 206 375 Z M 206 0 " clip-rule="nonzero"/></clipPath></defs><g clip-path="url(#81292360ad)"><path fill="#56ffa6" d="M 2.800781 187.484375 C 2.800781 271.09375 57.433594 341.945312 132.945312 366.285156 C 147.167969 370.871094 162.128906 373.804688 177.609375 374.867188 L 177.609375 247.621094 L 132.945312 247.621094 L 132.945312 316.15625 C 83.847656 294.113281 49.652344 244.789062 49.652344 187.484375 C 49.652344 130.175781 83.847656 80.855469 132.945312 58.8125 L 132.945312 127.691406 L 177.609375 127.691406 L 177.609375 0.101562 C 162.128906 1.160156 147.167969 4.09375 132.945312 8.679688 C 57.433594 33.023438 2.800781 103.871094 2.800781 187.484375 Z M 2.800781 187.484375 " fill-opacity="1" fill-rule="nonzero"/></g><g clip-path="url(#3a6865fdd6)"><path fill="#56ffa6" d="M 331.398438 195.070312 L 321.519531 185.191406 L 371.175781 135.539062 C 366.691406 119.917969 360.230469 105.128906 352.082031 91.464844 C 343.546875 77.136719 333.15625 64.042969 321.242188 52.515625 L 289.386719 86.894531 C 300.867188 98.164062 310.425781 111.382812 317.527344 126.023438 L 289.941406 153.609375 L 250.761719 114.433594 L 250.761719 9.496094 C 236.5625 4.699219 221.59375 1.550781 206.097656 0.289062 L 206.097656 132.933594 L 258.355469 185.191406 L 250.761719 192.789062 L 206.097656 237.453125 L 206.097656 374.683594 C 221.59375 373.421875 236.5625 370.277344 250.761719 365.480469 L 250.761719 255.949219 L 289.941406 216.773438 L 318.996094 245.832031 C 311.800781 261.636719 301.773438 275.878906 289.5625 287.90625 L 321.421875 322.285156 C 334.0625 310.023438 344.976562 296 353.777344 280.609375 C 361.734375 266.707031 367.960938 251.683594 372.167969 235.839844 Z M 331.398438 195.070312 " fill-opacity="1" fill-rule="nonzero"/></g></svg>